<?xml version="1.0" encoding="UTF-8"?>
<svg id="Layer_1" data-name="Layer 1" xmlns="http://www.w3.org/2000/svg" viewBox="0 0 384.52 384.22">
  <path d="M192.34,384.14c-41.35,0-82.69,.23-124.04-.07C31.54,383.81,.66,352.81,.29,316.42c-.11-10.26,6.23-17.51,15.56-17.8,9.27-.29,16.04,6.69,16.45,16.95,.84,20.9,16.5,36.5,37.35,36.53,81.86,.11,163.72,.12,245.58,0,20.97-.03,37.08-16.21,37.11-37.22,.12-81.84,.12-163.69,0-245.53-.03-21.01-16.17-37.14-37.15-37.17-81.86-.12-163.72-.12-245.58,0-21.2,.03-37.19,16.25-37.28,37.57-.14,31.5-.02,63.01-.05,94.51,0,8.71-4.64,15.11-12,16.89-10.03,2.42-19.83-4.51-19.89-14.82-.2-33.84-.86-67.7,.23-101.5C1.74,29.58,32.62,.33,67.84,.21c83.02-.27,166.05-.29,249.08,0,36.19,.13,67.2,30.98,67.35,67.16,.34,83.18,.34,166.36,0,249.53-.15,36.37-31.32,66.91-67.89,67.17-41.34,.29-82.69,.07-124.04,.07Z"/>
  <path d="M288.36,277.39c0,5.85,.08,10.84-.02,15.83-.19,9.47-6.94,16.39-15.92,16.44-8.95,.05-15.85-6.91-16.05-16.3-.11-5.13-.02-10.26-.02-15.97-5.43,0-10.38,.07-15.33-.02-10-.18-16.81-6.68-16.8-15.92,.01-9.21,6.83-15.77,16.82-16.03,4.83-.13,9.66-.02,15.31-.02,0-4.95-.02-9.7,0-14.45,.06-10.49,6.78-17.84,16.18-17.73,9.27,.11,15.75,7.3,15.82,17.58,.03,4.64,0,9.28,0,14.64,5.8,0,11.25-.27,16.66,.06,9.29,.56,15.61,7.42,15.46,16.31-.14,8.86-6.75,15.26-16.16,15.55-3.5,.11-7,.03-10.5,.04-1.63,0-3.25,0-5.47,0Z"/>
  <path d="M171.07,128.12c0,5.47,.1,10.29-.02,15.1-.26,10.29-6.9,17.14-16.35,17.01-9.21-.12-15.48-6.94-15.62-17.1-.07-4.8-.01-9.6-.01-15.02-2.74,0-5.01,0-7.28,0-17.41,0-24.89-4.75-25.01-15.88-.12-11.24,7.53-16.13,25.25-16.13,2.14,0,4.27,0,7.04,0,0-5.36-.06-10.31,.01-15.25,.14-10,6.61-16.84,15.85-16.87,9.24-.02,15.84,6.75,16.11,16.73,.14,4.95,.02,9.92,.02,15.4,5.28,0,10.08-.04,14.87,0,10.14,.09,17.39,6.85,17.31,16.09-.08,9.27-7.26,15.81-17.51,15.9-4.64,.04-9.29,0-14.66,0Z"/>
  <path d="M64.29,224.14c5.54,0,10.51-.06,15.47,.01,9.79,.14,16.71,6.88,16.65,16.12-.06,9-6.92,15.66-16.43,15.84-4.98,.09-9.97,.02-15.69,.02,0,4.98,.03,9.74,0,14.49-.07,10.62-6.57,17.7-16.15,17.63-9.34-.06-15.77-7.13-15.85-17.44-.03-4.65,0-9.3,0-14.68-4.99,0-9.74,.03-14.5,0-10.62-.07-17.69-6.56-17.63-16.16,.06-9.33,7.13-15.77,17.44-15.84,4.65-.03,9.3,0,14.68,0,0-5.15-.03-10.07,0-14.99,.08-10.17,6.71-17.19,16.14-17.13,9.19,.06,15.74,7.02,15.85,16.92,.05,4.82,0,9.64,0,15.21Z"/>
</svg>