<?xml version="1.0" encoding="UTF-8"?>
<svg id="Layer_1" data-name="Layer 1" xmlns="http://www.w3.org/2000/svg" viewBox="0 0 474.68 338.71">
  <path d="M316.31,135.06c-8.19,2.18-15.44,3.98-22.59,6.13-1.56,.47-2.98,1.97-4.07,3.31-9.85,12.17-19.47,24.53-29.46,36.59-6.82,8.24-18.46,6.14-22.04-3.66-1.65-4.52-.53-8.58,2.33-12.17,11.2-14.08,22.44-28.12,33.77-42.1,1.22-1.5,2.95-2.75,4.69-3.63,20.04-10.17,40.25-20.01,60.16-30.42,18.42-9.62,36.62-3.02,47.79,13.63,10.39,15.48,19.74,31.65,29.85,47.32,1.95,3.03,4.94,5.86,8.11,7.54,13.54,7.15,27.32,13.84,41.02,20.7,7.9,3.95,10.86,11.26,7.34,18.05-3.39,6.52-10.91,8.49-18.59,4.69-15.66-7.77-31.38-15.44-46.84-23.6-3.62-1.91-6.78-5.26-9.28-8.59-5.06-6.74-9.53-13.92-14.89-21.88-1.39,6.79-2.59,12.44-3.69,18.11-2.51,12.91-5.08,25.81-7.34,38.77-.31,1.8,.48,4.22,1.58,5.77,6.75,9.51,13.39,19.13,20.72,28.17,7.79,9.6,13.05,20.31,17.13,31.88,5.88,16.63,12.32,33.07,18.54,49.58,3.03,8.05,.92,14.72-5.76,17.94-6.57,3.17-13.47,.66-17.39-6.93-11-21.3-21.73-42.74-32.7-64.06-1.17-2.28-2.87-4.55-4.89-6.09-15.62-11.93-31.15-24-47.15-35.4-15.17-10.82-20.08-24.67-15.81-42.67,3.6-15.19,6.2-30.61,9.45-46.95Z"/>
  <path d="M158.63,135.06c3.5,18.1,6.81,35.24,10.14,52.37,2.75,14.18-1.8,25.71-13.09,34.39-16.37,12.59-33.04,24.8-49.42,37.38-2.65,2.04-5.05,4.86-6.59,7.83-10.78,20.85-21.3,41.83-31.9,62.78-2.79,5.51-6.92,8.95-13.4,8.54-5.28-.33-9.68-3.88-11-9.37-.55-2.29-.56-5.08,.23-7.25,8.29-22.66,16.58-45.33,25.39-67.8,1.89-4.82,5.75-8.91,8.88-13.21,7.65-10.5,15.47-20.88,23.04-31.43,1.04-1.45,1.79-3.74,1.47-5.41-3.47-18.47-7.18-36.9-10.94-55.9-1.08,.98-1.92,1.5-2.42,2.24-4.31,6.33-8.32,12.89-12.94,18.98-2.43,3.2-5.49,6.39-8.97,8.22-15.47,8.13-31.14,15.88-46.87,23.5-2.72,1.32-6.08,2.08-9.08,1.91-5.61-.32-9.95-4.97-11.01-10.69-.88-4.72,2.2-10.5,7.29-13.08,14.7-7.45,29.5-14.71,44.15-22.27,2.21-1.14,4.27-3.15,5.61-5.26,9.37-14.76,18.54-29.65,27.76-44.51,11.64-18.77,29.18-29.81,54.7-16.31,17.95,9.5,36.28,18.28,54.17,27.9,2.95,1.58,5.52,5.51,6.47,8.87,4.39,15.37,8.23,30.89,12.09,46.41,2.06,8.31-1.73,14.84-9.23,16.63-7.15,1.71-13.26-2.44-15.4-10.62-3.13-11.92-6-23.91-9.36-35.76-.54-1.92-2.71-4.05-4.62-4.78-4.62-1.77-9.53-2.77-15.14-4.3Z"/>
  <path d="M93.42,67.58c-18.82-.07-33.89-15.35-33.67-34.13C59.97,14.84,75.07-.06,93.66,0c18.5,.06,33.65,15.19,33.72,33.7,.08,18.74-15.18,33.95-33.97,33.88Z"/>
  <path d="M381.21,67.58c-18.84-.06-33.81-15.21-33.68-34.1C347.65,14.95,362.82-.04,381.4,0c18.51,.04,33.67,15.14,33.81,33.67,.14,18.64-15.22,33.97-33.99,33.91Z"/>
  <path d="M309.14,236.18c11.21,8.28,21.7,16.03,32.37,23.91-4.31,10.06-8.45,19.83-12.72,29.54-.58,1.32-1.68,2.48-2.73,3.53-13.63,13.67-27.26,27.34-40.96,40.94-5.12,5.08-10.83,5.9-16.3,2.61-5.07-3.05-7.34-9.04-5.41-14.72,.52-1.53,1.4-3.02,2.41-4.3,11.19-14.27,22.51-28.45,33.61-42.8,1.54-1.99,2.39-4.69,2.96-7.2,2.31-10.15,4.39-20.35,6.77-31.51Z"/>
  <path d="M165.78,236.14c2.35,11.28,4.44,21.68,6.75,32.03,.52,2.35,1.43,4.84,2.88,6.71,11.01,14.21,22.17,28.32,33.36,42.39,4.45,5.59,4.37,13.05-.4,17.68-5.16,5.01-12.48,5.11-17.93-.25-14.12-13.9-28.54-27.56-41.83-42.22-4.79-5.29-6.84-13.12-9.95-19.88-5.72-12.42-5.64-12.43,5.34-20.43,6.98-5.09,13.92-10.24,21.78-16.03Z"/>
</svg>