<?xml version="1.0" encoding="UTF-8"?>
<svg id="Layer_1" data-name="Layer 1" xmlns="http://www.w3.org/2000/svg" viewBox="0 0 384.25 426.81">
  <path d="M125.98,181.77c-.98,9.69-1.89,18.43-2.73,27.17-1.96,20.39-3.92,40.79-5.81,61.19-.23,2.48-.09,4.99-.09,7.48,0,44.17,.06,88.33-.04,132.5-.02,11.45-9.4,18.83-20.01,16.16-7.28-1.83-11.88-8.25-11.93-17.01-.08-14.5-.02-29-.02-43.5,0-20.67,0-41.33,0-62v-4.84H42.83c0,2.2,0,4.16,0,6.13,0,34,.01,68-.03,102,0,2.48-.11,5.02-.62,7.44-1.64,7.68-8.75,12.85-16.54,12.26-7.95-.6-14.21-6.55-14.65-14.43-.34-6.15-.16-12.33-.17-18.49-.01-28.67-.05-57.33,.06-86,.01-2.95-.61-4.8-3.38-6.39-4.99-2.86-7.37-7.61-7.38-13.35-.02-41.83-.35-83.67,.16-125.49,.34-28.35,23.16-52.29,51.35-55.6,24.01-2.82,45.05,2.53,62.68,20.16,13.54,13.54,28.09,26.07,42.09,39.17,2.26,2.12,4.2,2.91,7.45,2.19,13.16-2.9,26.41-5.44,39.64-8.02,12.3-2.4,21.61,5.14,20.82,16.74-.45,6.64-4.91,12.49-11.69,13.94-18.23,3.89-36.52,7.49-54.82,11.05-5.59,1.09-10.5-.65-14.67-4.59-5.43-5.12-10.95-10.14-17.16-15.86Z"/>
  <path d="M341.44,298.8h-42.52v6.09c0,34,0,67.99-.02,101.99,0,2.16-.03,4.35-.39,6.47-1.42,8.34-8.44,13.95-16.62,13.41-8.32-.55-14.69-6.79-14.86-15.28-.26-12.83-.11-25.66-.11-38.49,0-21.66-.04-43.33,.04-64.99,.01-2.85-.32-4.87-3.22-6.47-5.03-2.78-7.5-7.53-7.51-13.26-.03-42-.41-84,.18-125.98,.42-29.81,25.16-53.98,55.62-55.67,17.12-.95,33.68,.69,47.97,11.59,15.54,11.85,24.07,27.46,24.16,47.09,.19,40.33,.03,80.66,.09,120.99,0,6.87-2.42,12.14-8.31,16.04-1.45,.96-2.38,3.74-2.39,5.69-.14,33.83-.08,67.66-.13,101.49-.01,8.88-4.53,15.07-11.98,16.84-10.03,2.37-19.08-4.35-19.92-14.92-.25-3.15-.09-6.33-.09-9.5,0-32.33,0-64.66,0-96.99v-6.11Z"/>
  <path d="M63.61,0c23.57,.12,42.52,19.15,42.47,42.65-.05,23.6-19.46,42.76-43.14,42.57-23.45-.19-42.29-19.42-42.11-42.99C21.01,18.59,39.96-.12,63.61,0Z"/>
  <path d="M276.9,42.67C276.83,19.04,295.62,.11,319.25,0c23.61-.1,42.73,18.71,42.91,42.2,.17,23.63-19.06,43.01-42.7,43.02-23.5,0-42.49-18.99-42.56-42.55Z"/>
</svg>