<?xml version="1.0" encoding="UTF-8"?>
<svg id="Layer_1" data-name="Layer 1" xmlns="http://www.w3.org/2000/svg" viewBox="0 0 491.04 352.06">
  <path d="M37.13,192.01c-6.67,0-13.32,.05-19.97-.01C7.06,191.91-.14,185.07,0,175.79c.13-9.11,7.21-15.64,17.09-15.77,.83-.01,1.67,.02,2.5,0,4.48-.12,9.9,1.25,13.17-.81,3.03-1.9,3.81-7.45,5.49-11.42,15.52-36.79,31.02-73.58,46.54-110.37C94.83,13.61,115.18,.04,141.05,.03c69.65-.03,139.31-.03,208.96,0,25.9,.01,46.17,13.54,56.24,37.4,16.5,39.08,33.05,78.14,49.35,117.31,1.76,4.23,3.89,5.86,8.38,5.37,3.79-.41,7.66-.2,11.49-.04,8.79,.36,15.45,7.16,15.57,15.74,.12,8.76-6.63,15.88-15.66,16.15-7.15,.21-14.3,.04-21.54,.04-10.18,26.16-20.25,52.05-30.31,77.94-5.79,14.88-11.53,29.78-17.36,44.65-8.83,22.55-29.91,37.33-54.17,37.38-70.99,.13-141.97,.13-212.96,0-24.22-.04-45.37-14.85-54.16-37.4-15.17-38.9-30.26-77.83-45.38-116.75-.72-1.85-1.5-3.68-2.37-5.79Zm31.05-32.24H422.54c-.1-.8-.05-1.49-.29-2.06-15.52-36.78-30.98-73.58-46.68-110.28-3.74-8.75-10.96-14.05-20.34-15.02-7.87-.81-15.89-.17-24.45-.17,0,8.84,.11,17.45-.03,26.07-.15,9.56-6.81,16.48-15.7,16.61-8.83,.12-15.77-6.74-16.2-16.23-.2-4.49-.05-9-.06-13.49,0-4.27,0-8.54,0-12.89h-37.28c0,9.25,.2,18.22-.06,27.17-.25,8.74-7.35,15.42-15.88,15.44-8.51,.02-15.52-6.67-15.98-15.36-.14-2.66-.05-5.33-.05-8,0-6.43,0-12.86,0-19.21h-37.25c0,8.48,.38,16.65-.16,24.76-.26,3.96-1.5,8.26-3.59,11.6-3.46,5.52-10.58,7.34-16.85,5.46-6.58-1.98-11.1-7.37-11.27-14.28-.23-9.11-.06-18.24-.06-27.88-6.23,0-11.85,0-17.46,0-15.34,.01-23.31,5.29-29.26,19.4-14.55,34.48-29.1,68.96-43.63,103.45-.63,1.48-1.12,3.02-1.82,4.92Zm161.36,160.01c0-8.93-.04-17.55,.01-26.17,.05-7.23,3.4-12.51,10.04-15.29,10.33-4.33,21.55,3.13,21.87,14.58,.25,8.93,.05,17.86,.05,26.8h37.05c.08-1.61,.2-2.92,.21-4.23,.03-7.5-.21-15.01,.11-22.49,.39-9.24,7.35-15.9,16.01-15.87,8.91,.03,15.6,6.93,15.86,16.45,.1,3.83,.03,7.66,.03,11.5,0,4.92,0,9.83,0,14.96,6.84,0,12.83,.02,18.82,0,13.77-.06,22.49-6.05,27.51-18.94,13.46-34.57,26.89-69.14,40.32-103.72,.63-1.61,1.07-3.3,1.66-5.14H72.02c.25,1.04,.36,1.85,.65,2.6,14.09,36.28,28.15,72.58,42.36,108.81,2.81,7.16,7.96,13.05,15.48,14.47,9.61,1.81,19.57,1.82,29.79,2.64,0-10-.1-18.48,.03-26.95,.14-9.59,6.73-16.52,15.63-16.67,8.85-.16,15.79,6.63,16.27,16.15,.23,4.49,.06,9,.07,13.49,0,4.28,0,8.55,0,13.04h37.26Z"/>
</svg>