<?xml version="1.0" encoding="UTF-8"?>
<svg id="Layer_1" data-name="Layer 1" xmlns="http://www.w3.org/2000/svg" viewBox="0 0 426.45 426.47">
  <path d="M213.35,0c117.88,.18,213.41,95.88,213.1,213.48-.31,117.94-96.18,213.53-213.6,212.99C94.94,425.93,0,330.81,0,213.23,0,95.47,95.7-.18,213.35,0Zm-.02,394.47c100.42-.13,180.97-80.67,181.12-181.1,.15-100.47-80.87-181.51-181.33-181.38-100.44,.13-180.95,80.63-181.12,181.08-.17,100.43,80.89,181.51,181.33,181.39Z"/>
  <path d="M138.46,287.71c0-6,.24-11.8-.18-17.57-.1-1.33-2.2-2.98-3.74-3.67-14.81-6.58-25.69-16.83-29.51-32.95-1.39-5.86-1.36-12.21-1.01-18.27,.28-4.87-.68-8.73-3.93-12.32-19.6-21.63-25.64-46.63-15.7-74.08,10.12-27.94,31.29-43.69,60.44-48.27,30.1-4.73,61.42,11.41,75.89,38.41,14.51,27.09,10.31,59.68-10.89,83.05-3.52,3.88-5.15,8.09-4.51,13.19,3.15,25.06-12.71,44.48-31.52,51.93-2.65,1.05-3.49,2.43-3.38,5.16,.2,4.96,.06,9.94,.06,15.21,12.24,1.63,19.89,7.92,21.34,20.27,.93,7.94-3.82,16.51-11.27,20.19-9.46,4.68-18.08,2.84-25.89-4.33-8.71,7.57-18.2,9.54-28.28,2.98-7.2-4.69-10.54-13.74-8.65-21.89,2.22-9.54,8.9-15.24,20.73-17.06Zm19.76-175.72c-27.88,.1-46.3,18.13-46.21,41.33,.04,10.69,3.96,19.75,11.18,27.52,10.09,10.86,14.85,23.38,12.38,38.4-1.15,7.02,1.8,12.82,7.51,16.89,6.68,4.77,14.01,5.23,21.22,1.37,7.24-3.88,9.95-10.34,9.23-18.41-1.27-14.26,2.1-27.03,12-37.81,11.95-13.02,15.48-28.06,8.12-44.27-7.5-16.51-21.26-24.52-35.43-25.01Z"/>
  <path d="M357.62,220.47c-2.21,45.25-21.06,81.56-55.38,109.81-12.38,10.19-27.08,15.64-43.3,15.91-27.18,.46-45.05-14.55-49.76-41.29-4.26-24.21,3.55-45.06,18.03-63.84,12.39-16.07,27.29-29.04,46.71-36.34,4.48-1.69,8.25-5.42,12.17-8.44,6.18-4.76,11.74-10.52,18.41-14.43,22.88-13.43,47.1-1.9,51.66,24.24,.85,4.9,1.02,9.92,1.45,14.39Zm-35.68-12.13c-3.96,3.1-7.8,5.63-11.07,8.75-7.41,7.05-15.13,13.79-24.87,17.19-12.8,4.46-22.31,13-30.81,23-9.53,11.2-16.28,23.54-15.09,38.93,.81,10.46,5.51,15.59,15.85,17.19,11.52,1.79,20.94-2.95,29.15-10.19,19.13-16.86,32.17-37.58,37.9-62.56,2.38-10.39,3.78-20.92-1.06-32.31Z"/>
  <path d="M277.37,74.58c5.85,.09,10.76,5.26,10.51,11.05-.25,5.66-5.18,10.35-10.8,10.27-5.83-.09-10.76-5.28-10.51-11.05,.25-5.68,5.16-10.35,10.8-10.26Z"/>
  <path d="M245.43,127.89c-5.62,.13-10.57-4.52-10.85-10.2-.29-5.8,4.57-10.97,10.44-11.11,5.81-.13,10.89,4.86,10.86,10.7-.02,5.64-4.79,10.48-10.45,10.62Z"/>
  <path d="M288.03,138.42c-6.02,.06-10.84-4.69-10.77-10.63,.06-5.68,4.81-10.44,10.48-10.52,5.93-.08,10.71,4.73,10.67,10.74-.04,5.89-4.49,10.35-10.38,10.42Z"/>
  <path d="M266.56,170.42c-5.91,0-10.4-4.4-10.51-10.28-.11-6.04,4.57-10.88,10.52-10.87,5.87,0,10.76,5.01,10.62,10.87-.14,5.73-4.83,10.28-10.62,10.28Z"/>
  <path d="M330.4,149.11c.06,6-4.77,10.89-10.65,10.8-5.66-.08-10.42-4.87-10.48-10.56-.07-5.9,4.87-10.86,10.74-10.78,5.74,.08,10.34,4.74,10.4,10.54Z"/>
</svg>