<?xml version="1.0" encoding="UTF-8"?>
<svg id="Layer_1" data-name="Layer 1" xmlns="http://www.w3.org/2000/svg" viewBox="0 0 448 426.62">
  <path d="M96,187.05c7.39-2.15,14.04-4.09,20.75-6.05,.59-6.62,.73-13.47,1.89-20.15,3.89-22.41,16.26-40.24,31.72-56.1,19.2-19.71,41.26-35.73,65.24-49.15,5.17-2.89,10.52-3.42,15.74-.5,30.63,17.16,58.61,37.63,80.06,65.9,12.75,16.81,19.86,35.69,19.37,57.08-.02,.98,.15,1.96,.23,2.82,6.97,2.03,13.76,4.01,21.01,6.12,0-1.83,0-3.61,0-5.38,0-25.84-.08-51.68,.09-77.52,.02-3.74,.73-7.66,2.02-11.17,9.89-26.86,19.99-53.64,30.05-80.44C387.39,3.93,392.56-.05,400.23,.03c7.38,.08,12.46,4.08,15.61,12.47,10.06,26.79,20.17,53.57,30.04,80.44,1.34,3.65,2.03,7.77,2.04,11.67,.11,101.02,.09,202.05,.08,303.07,0,13.02-5.87,18.92-18.91,18.92-47.83,.02-95.66,.01-143.49,0-13.05,0-18.75-5.82-18.87-18.92-.18-20,.55-40.07-.97-59.97-1.92-25.23-14.83-44.05-37.75-55.58-2.74-1.38-5.05-1.47-7.9-.04-22.97,11.47-35.91,30.25-37.88,55.47-1.54,19.73-.8,39.64-.97,59.47-.12,14.08-5.56,19.57-19.72,19.57-47.33,0-94.66,0-141.99,0C5.62,426.61,0,420.92,0,406.84,0,306.31-.02,205.79,.07,105.26c0-3.76,.4-7.74,1.68-11.23C11.85,66.55,22.22,39.16,32.46,11.72,34.8,5.46,38.81,1.16,45.62,.19c7.89-1.12,14.46,2.65,17.38,10.36,10.7,28.16,21.28,56.36,31.73,84.6,1.01,2.73,1.2,5.87,1.21,8.83,.09,25.84,.05,51.68,.05,77.52v5.55Zm256,207.35v-5.02c0-49.16,.02-98.33,0-147.49,0-17.7-10.96-28.58-28.75-28.58-66.14-.02-132.28-.02-198.43,0-18.02,0-28.8,10.88-28.81,29.02-.02,49,0,97.99,0,146.99v4.97h53.25c0-3.93-.08-7.56,.01-11.19,.37-13.48-.32-27.11,1.42-40.41,4.5-34.37,23.72-59.4,52.48-77.53,19.44-12.26,22.81-12.19,42.08,.16,28.61,18.35,47.85,43.42,52.12,77.8,1.86,14.97,1.01,30.27,1.38,45.42,.05,1.92,0,3.84,0,5.87h53.25ZM48.63,63.19c-.42-.03-.83-.07-1.25-.1-5.09,13.65-10.21,27.28-15.2,40.97-.49,1.33-.18,2.97-.18,4.47,0,93.48,0,186.97,0,280.45,0,1.77,0,3.54,0,5.37h31.75c.09-1.69,.24-3.15,.24-4.6,.01-93.98,.01-187.97-.01-281.95,0-1.64,.03-3.41-.53-4.91-4.87-13.26-9.87-26.47-14.82-39.69Zm351.94-.09c-.4,.03-.81,.06-1.21,.08-4.54,12.14-9.17,24.25-13.55,36.44-1.04,2.9-1.73,6.1-1.74,9.17-.09,93.32-.07,186.63-.07,279.95v5.49h32v-6.27c0-91.65,.05-183.3-.13-274.95-.01-5.65-1.24-11.52-3.03-16.91-3.69-11.13-8.14-22.02-12.27-33Zm-102.22,117.97c1.3-12.47-1.6-23.39-10.1-36.21-15.72-23.71-37.29-40.97-61.79-54.8-1.43-.81-4.21-.42-5.79,.44-15.71,8.62-29.82,19.42-42.56,32-9.41,9.29-17.7,19.45-23.51,31.44-4.13,8.51-6.15,17.42-5.01,27.13h148.77Z"/>
</svg>