<?xml version="1.0" encoding="UTF-8"?>
<svg id="Layer_1" data-name="Layer 1" xmlns="http://www.w3.org/2000/svg" viewBox="0 0 384.15 384.23">
  <path d="M192,0c47.01,0,94.01,0,141.02,0,30.62,0,51.04,20.45,51.05,51.11,.01,65.52-.05,131.04,.08,196.56,.01,6.62-2.03,11.81-6.73,16.48-37.68,37.52-75.29,75.12-112.79,112.82-4.91,4.93-10.24,7.25-17.27,7.24-65.51-.15-131.02-.08-196.53-.1C20.59,384.13,.01,363.55,.01,333.29,0,239.09,0,144.9,.01,50.7,.02,20.71,20.61,.03,50.48,.01c47.17-.03,94.35,0,141.52,0Zm160.07,234.83v-5.56c0-59.66,0-119.33,0-178.99,0-12.29-6.08-18.27-18.52-18.27-94.31,0-188.62,0-282.94,0-12.63,0-18.59,6-18.59,18.7,0,94.16,0,188.32,0,282.48,0,13.08,5.82,18.92,18.88,18.92,59.32,0,118.64,0,177.96,0h5.94c0-2.27,0-4.06,0-5.84,.03-21.83-.26-43.67,.19-65.49,.44-21.7,16.19-40.23,37.48-44.75,4.51-.96,9.25-1.13,13.89-1.16,21.64-.12,43.28-.05,65.72-.05Zm-23.62,32.02c-15.36,0-30.14-.08-44.92,.03-10.52,.08-16.62,6.27-16.7,16.88-.09,13.82-.04,27.63,0,41.45,0,1,.35,2,.49,2.72,20.27-20.25,40.38-40.34,61.13-61.07Z"/>
  <path d="M192.03,117.3c-29.17,0-58.34,.02-87.51-.04-2.8,0-5.73-.07-8.39-.85-6.77-1.99-11.27-8.63-11.02-15.58,.26-7.22,5.32-13.38,12.48-14.95,1.93-.42,3.96-.57,5.94-.57,59-.03,118.01-.04,177.01-.01,13.26,0,21.43,10.13,17.43,21.43-2.38,6.73-8.1,10.51-16.44,10.54-23.67,.06-47.34,.03-71.01,.03-6.17,0-12.33,0-18.5,0Z"/>
  <path d="M170.56,192.07c-22.81,0-45.63,.08-68.44-.03-12.07-.06-19.81-10.48-16.05-21.26,2.32-6.65,8.15-10.68,15.82-10.7,20.82-.05,41.63-.02,62.45-.02,24.65,0,49.29-.01,73.94,0,10.75,0,17.84,6.33,17.89,15.86,.04,9.56-7.04,16.11-17.65,16.13-22.65,.05-45.3,.01-67.95,.01Z"/>
</svg>