<?xml version="1.0" encoding="UTF-8"?>
<svg id="Layer_1" data-name="Layer 1" xmlns="http://www.w3.org/2000/svg" viewBox="0 0 384.06 415.64">
  <path d="M0,207.82C0,144.98,0,82.14,0,19.3,0,5.86,5.75,0,19.04,0c115.33,0,230.65,0,345.98,0,13.23,0,19.04,5.91,19.04,19.29,0,125.68,0,251.36,0,377.04,0,13.44-5.75,19.29-19.04,19.29-115.33,0-230.65,0-345.98,0C5.81,415.63,0,409.72,0,396.34c0-62.84,0-125.68,0-188.52ZM32.3,32.24V383.27h42.46v-6.24c0-48.17,0-96.35,0-144.52,0-13.82,5.58-19.42,19.31-19.43,65.17,0,130.33,0,195.5,0,14.16,0,19.72,5.5,19.72,19.55,0,48.17,0,96.35,0,144.52,0,1.96,0,3.91,0,6.17h42.43V32.24H32.3ZM175.75,245.42H107.2v137.97h68.55V245.42Zm101.22,137.97V245.4h-68.56v138h68.56Z"/>
  <path d="M128.35,127.26c1.34-4.72,2.67-9.45,4.02-14.17,1.87-6.56,3.83-13.09,5.6-19.67,1.32-4.92,4.41-7.16,9.45-7.04,4.16,.1,8.33,.09,12.49,0,5.04-.1,8.07,2.13,9.42,7.07,2.71,9.95,5.62,19.84,8.49,29.74,.42,1.44,1.05,2.81,1.59,4.22,.46-.08,.93-.15,1.39-.23,1.4-9.62,2.81-19.23,4.21-28.85,1.27-8.73,2.61-17.45,3.76-26.19,.37-2.77,1.4-4.17,4.41-4.13,7.66,.12,15.33,.12,22.99,0,3.52-.06,4.29,1.54,3.7,4.67-4.74,25.35-9.33,50.73-14.19,76.06-2.03,10.58-6.05,13.58-16.84,13.59-3.17,0-6.35-.2-9.49,.04-7.54,.58-12.09-3.27-14.3-9.92-3.25-9.78-6.05-19.71-9.06-29.57-.51-1.69-1.07-3.37-2.05-6.47-1.08,2.49-1.67,3.55-2.01,4.68-2.94,9.71-5.67,19.48-8.81,29.13-3.26,10.02-6.39,12.11-16.7,12.12-3.17,0-6.33,.02-9.5,0-8.77-.06-12.94-3.1-14.81-11.7-2.19-10.08-3.95-20.25-5.83-30.39-2.91-15.71-5.64-31.45-8.72-47.12-.76-3.88,.17-5.2,4.05-5.12,6.99,.15,14.01,.31,20.98-.06,4.41-.23,5.77,1.67,6.31,5.63,2.24,16.66,4.68,33.29,7.07,49.94,.18,1.24,.53,2.45,.81,3.67,.53,.03,1.05,.06,1.58,.08Z"/>
  <path d="M230.15,113.69c.43-4.67,.48-10.9,1.64-16.91,3.63-18.82,15.4-29.35,34.4-30.06,8.06-.3,16.19,1.4,24.28,2.2,3.32,.33,4.46,2.29,4.38,5.47-.12,5-.07,10-.03,15,.03,3.7-1.6,4.92-5.32,4.5-5.29-.6-10.63-.88-15.95-.94-6.9-.08-10.86,3.08-11.32,9.95-.54,8.12-.53,16.33-.03,24.46,.42,6.87,4.4,10.07,11.26,10,5.32-.05,10.66-.27,15.95-.8,3.57-.36,5.46,.51,5.41,4.37-.07,5.17,.25,10.35-.17,15.49-.14,1.67-1.98,4.47-3.24,4.59-10.55,.95-21.31,2.87-31.68,1.65-16.36-1.92-26.92-15.02-28.65-32.5-.49-4.97-.58-9.97-.94-16.46Z"/>
</svg>