<?xml version="1.0" encoding="UTF-8"?>
<svg id="Layer_1" data-name="Layer 1" xmlns="http://www.w3.org/2000/svg" viewBox="0 0 458.15 437.65">
  <path d="M87.9,226.28c17.74-4.98,31.95-.42,43.88,12.23,4.57,4.85,9.58,9.29,14.09,14.19,14.75,16.04,31.83,28.65,51.91,37.37,12.54,5.44,23.08,13.85,29.31,22.81,4.69-3.47,9.32-7.28,14.33-10.52,8.08-5.23,16.06-10.8,24.7-14.93,15.09-7.21,28.46-16.53,40.12-28.46,7.1-7.27,14.41-14.35,21.55-21.59,11.35-11.5,24.7-15.84,40.54-11.58,.6,.16,1.27,.08,2.22,.12,2.45-16.76,4.72-33.41,7.36-49.99,1.23-7.69,2.31-15.58,4.95-22.84,5.96-16.41,20.43-25.58,37.64-25.03,15.73,.5,29.82,11.73,35.35,27.34,2.83,8.01,2.49,15.98,1.81,24.12-2.62,31.55-4.87,63.14-7.97,94.64-1.28,13.03-3.95,25.97-6.77,38.78-2.04,9.27-7.09,17.28-14.21,23.66-18.61,16.68-37.43,33.12-56.01,49.84-4.81,4.33-9.35,9.04-13.43,14.05-4.83,5.93-7.34,12.92-7.47,20.76-.16,9.72-7.34,16.69-16.43,16.39-9.18-.31-15.85-7.57-15.44-17.34,.77-18.51,8.45-34.38,21.06-47.35,10.65-10.95,22.83-20.42,34.24-30.64,9.31-8.34,18.32-17.02,27.79-25.16,7-6.02,10.74-13.55,11.77-22.43,2.12-18.2,4.19-36.41,5.82-54.65,2.07-23.24,3.69-46.51,5.5-69.77,.08-1,.26-2,.18-2.99-.3-3.99-2.41-6.49-6.38-7.19-4.02-.71-6.64,1.38-7.49,4.97-1.42,5.98-2.44,12.06-3.33,18.15-4.14,28.18-8.2,56.36-12.24,84.55-1.39,9.71-5.25,18.11-12.3,25.07-12.69,12.54-25.22,25.23-37.87,37.81-4.64,4.62-10.25,6.23-16.52,4.24-6.05-1.93-9.75-6.28-10.91-12.53-1.1-5.91,1.17-10.72,5.33-14.86,12.05-12,24.06-24.03,36.05-36.08,1.28-1.29,2.67-2.62,3.46-4.21,1.76-3.5,1.26-6.84-1.88-9.43-2.95-2.43-6.14-2.41-9.19-.21-1.34,.96-2.44,2.26-3.63,3.43-9.86,9.7-19.53,19.6-29.62,29.07-12.26,11.5-26.37,20.42-41.83,26.9-21.7,9.09-31.33,25.94-32.06,48.52-.61,18.65-.48,37.33-.85,56-.22,11.05-9.68,18.24-20.1,15.56-7.23-1.86-11.77-8.28-11.84-17.09-.13-16.17,.03-32.34-.33-48.51-.14-6.46-.91-12.99-2.17-19.34-2.9-14.6-10.95-25.64-24.51-32.13-17.34-8.3-34.29-17.18-48.33-30.6-9.64-9.21-19-18.72-28.48-28.09-1.07-1.05-2.09-2.17-3.23-3.13-3.41-2.89-6.94-3.07-10.35-.07-3.13,2.75-3.28,7.26-.44,10.8,.83,1.03,1.85,1.92,2.79,2.86,11.78,11.79,23.6,23.55,35.34,35.38,7.44,7.5,7.85,17.32,1.1,23.95-6.68,6.57-16.13,6.15-23.56-1.22-12.54-12.45-24.91-25.07-37.51-37.45-7.93-7.8-11.04-17.52-12.53-28.16-4.33-30.84-8.84-61.66-13.29-92.48-.21-1.48-.52-2.96-.88-4.41-1.41-5.7-4.03-7.96-8.36-7.27-4.47,.7-6.76,4.21-6.32,9.73,.64,7.97,1.3,15.94,1.96,23.91,2.27,27.4,4.46,54.81,6.89,82.19,.65,7.28,1.91,14.53,3.19,21.74,1.25,7.05,4.28,13.16,9.85,18.02,18.45,16.1,36.89,32.23,55.09,48.62,16.5,14.86,27.85,32.64,29.4,55.49,.59,8.64-4.66,15.79-12.55,17.39-8.07,1.64-15.65-2.53-18.37-10.17-.44-1.24-.82-2.59-.81-3.88,.17-13.03-6.12-23.05-15.21-31.41-9.07-8.34-18.77-16-28-24.17-10.23-9.05-20.06-18.57-30.4-27.49-12.7-10.96-19.18-25.15-21.18-41.27-2.83-22.8-4.92-45.7-7.04-68.59-1.74-18.75-2.63-37.58-4.67-56.29-2.12-19.37,11.61-42.01,33.26-45.5,20.32-3.28,39.61,9.58,44.2,31.37,3.19,15.13,4.83,30.58,7.16,45.89,1.02,6.72,2.01,13.44,3.07,20.57Z"/>
  <path d="M110.35,66.33c.48-17.8,7.11-24.84,24.97-27.4,26.39-3.79,49.61-15.31,71.44-30.15,4.72-3.21,9.98-6.13,15.43-7.66,9.42-2.63,18.48-.5,26.49,5.23,17.98,12.87,37.18,23.31,58.62,29.14,6.21,1.69,12.62,2.93,19.01,3.64,13.22,1.47,22.15,12.37,21.71,24.07-2.28,60.59-21.38,113.92-66.2,156.39-12.4,11.75-26.32,21.41-41.64,28.98-7.67,3.79-15.3,3.33-22.89-.64-39.58-20.69-67.74-52.05-86.19-92.4-9.53-20.84-15.37-42.77-18.22-65.49-.99-7.89-1.69-15.81-2.52-23.72Z"/>
</svg>