<?xml version="1.0" encoding="UTF-8"?>
<svg id="Layer_1" data-name="Layer 1" xmlns="http://www.w3.org/2000/svg" viewBox="0 0 588.58 594.73">
  <path d="M0,354.34c1.2-12.08,1.91-24.24,3.67-36.24,8.44-57.58,31.48-109.15,65.35-156.08C111.99,102.48,168.06,58.53,233.05,25.52c17.79-9.04,36.36-16.54,54.58-24.72,1.18-.53,2.43-.9,3.91-.76-9.95,7.68-20.02,15.22-29.83,23.07-50.76,40.64-98.09,84.81-138.14,136.29-24.58,31.59-45.74,65.2-57.9,103.73-9.98,31.61-12.15,63.37-.74,95.19,5.52,15.38,13.79,29.18,24.26,41.67,23.04,27.51,52.6,46.12,84.77,61.18-1.82-1.22-3.64-2.43-5.46-3.67-29.92-20.37-57.63-43.19-79.25-72.58-12.62-17.15-21.92-35.76-22.97-58.44,3.67,2.72,6.97,4.99,10.07,7.51,28.32,23.05,60.04,40.74,91.78,58.43,21.23,11.83,42.93,22.98,61.9,38.45,23,18.75,39.22,41.85,43.46,71.79,4.39,30.98-1.09,60.36-16.43,87.8-1.64,2.94-3.66,4.43-7.12,4.27-92.48-4.48-184.77-46.18-229.13-141.04-11.76-25.16-18.53-51.67-20.04-79.46-.09-1.63-.5-3.24-.76-4.86,0-5,0-10,0-15.01Z"/>
  <path d="M522.29,326.21c-.1,13.24-3.64,24.6-8.82,35.49-10.41,21.87-25.59,40.29-43.57,56.1-15.98,14.05-33.24,26.65-49.94,39.88-.9,.71-1.87,1.35-3.16,2.27,.83,.15,1.32,.41,1.61,.27,30.49-15.25,58.78-33.53,80.93-59.99,31.76-37.94,38.81-81.11,26.35-128.15-9.31-35.13-26.9-66.22-47.78-95.57-32.16-45.23-70.58-84.75-112.36-120.99-21.26-18.43-43.69-35.51-65.59-53.21-.62-.5-1.23-1.03-2.59-2.18,1.68,.2,2.47,.14,3.13,.4,63.17,25.01,121.26,58.31,170.54,105.66,49.23,47.3,85.31,102.96,104.68,168.79,11.17,37.95,16.2,76.75,10.5,116.14-9.34,64.54-41.47,115.64-94.2,153.64-36.58,26.36-77.82,41.13-122.43,46.66-10.24,1.27-20.51,2.37-30.8,3.09-2.01,.14-5.23-1.27-6.11-2.92-22.66-42.5-27.64-85.61-2.48-128.91,11.21-19.28,27.93-33.55,46.83-44.91,23.55-14.15,47.56-27.55,71.49-41.05,25.74-14.51,49.97-31.18,73.77-50.54Z"/>
</svg>